<?xml version="1.0" encoding="UTF-8" standalone="no"?>
<svg
   xmlns:dc="http://purl.org/dc/elements/1.1/"
   xmlns:cc="http://creativecommons.org/ns#"
   xmlns:rdf="http://www.w3.org/1999/02/22-rdf-syntax-ns#"
   xmlns:svg="http://www.w3.org/2000/svg"
   xmlns="http://www.w3.org/2000/svg"
   xmlns:sodipodi="http://sodipodi.sourceforge.net/DTD/sodipodi-0.dtd"
   xmlns:inkscape="http://www.inkscape.org/namespaces/inkscape"
   width="114.46107mm"
   height="67.86515mm"
   viewBox="0 0 114.46107 67.865151"
   version="1.1"
   id="svg4157"
   inkscape:version="0.92.5 (2060ec1f9f, 2020-04-08)"
   sodipodi:docname="process_automation.svg">
  <defs
     id="defs4151">
    <inkscape:path-effect
       effect="bspline"
       id="path-effect4843"
       is_visible="true"
       weight="33.333333"
       steps="2"
       helper_size="0"
       apply_no_weight="true"
       apply_with_weight="true"
       only_selected="false" />
    <inkscape:path-effect
       effect="bspline"
       id="path-effect4839"
       is_visible="true"
       weight="33.333333"
       steps="2"
       helper_size="0"
       apply_no_weight="true"
       apply_with_weight="true"
       only_selected="false" />
    <inkscape:path-effect
       effect="bspline"
       id="path-effect4835"
       is_visible="true"
       weight="33.333333"
       steps="2"
       helper_size="0"
       apply_no_weight="true"
       apply_with_weight="true"
       only_selected="false" />
    <inkscape:perspective
       sodipodi:type="inkscape:persp3d"
       inkscape:vp_x="6.7489176 : 18.509877 : 1"
       inkscape:vp_y="0 : 708.26445 : 0"
       inkscape:vp_z="131.10141 : 18.509877 : 1"
       inkscape:persp3d-origin="68.925169 : 1.0511554 : 1"
       id="perspective952" />
    <marker
       style="overflow:visible"
       id="Arrow2Mend"
       refX="0"
       refY="0"
       orient="auto"
       inkscape:stockid="Arrow2Mend"
       inkscape:isstock="true">
      <path
         transform="scale(-0.6)"
         d="M 8.7185878,4.0337352 -2.2072895,0.01601326 8.7185884,-4.0017078 c -1.7454984,2.3720609 -1.7354408,5.6174519 -6e-7,8.035443 z"
         style="fill:#000000;fill-opacity:1;fill-rule:evenodd;stroke:#000000;stroke-width:0.625;stroke-linejoin:round;stroke-opacity:1"
         id="path893"
         inkscape:connector-curvature="0" />
    </marker>
    <marker
       style="overflow:visible"
       id="Arrow1Send"
       refX="0"
       refY="0"
       orient="auto"
       inkscape:stockid="Arrow1Send"
       inkscape:isstock="true">
      <path
         transform="matrix(-0.2,0,0,-0.2,-1.2,0)"
         style="fill:#000000;fill-opacity:1;fill-rule:evenodd;stroke:#000000;stroke-width:1.00000003pt;stroke-opacity:1"
         d="M 0,0 5,-5 -12.5,0 5,5 Z"
         id="path881"
         inkscape:connector-curvature="0" />
    </marker>
    <marker
       style="overflow:visible"
       id="Arrow2Mstart"
       refX="0"
       refY="0"
       orient="auto"
       inkscape:stockid="Arrow2Mstart"
       inkscape:isstock="true">
      <path
         transform="scale(0.6)"
         d="M 8.7185878,4.0337352 -2.2072895,0.01601326 8.7185884,-4.0017078 c -1.7454984,2.3720609 -1.7354408,5.6174519 -6e-7,8.035443 z"
         style="fill:#000000;fill-opacity:1;fill-rule:evenodd;stroke:#000000;stroke-width:0.625;stroke-linejoin:round;stroke-opacity:1"
         id="path890"
         inkscape:connector-curvature="0" />
    </marker>
    <marker
       style="overflow:visible"
       id="Arrow2Lstart"
       refX="0"
       refY="0"
       orient="auto"
       inkscape:stockid="Arrow2Lstart"
       inkscape:isstock="true">
      <path
         transform="matrix(1.1,0,0,1.1,1.1,0)"
         d="M 8.7185878,4.0337352 -2.2072895,0.01601326 8.7185884,-4.0017078 c -1.7454984,2.3720609 -1.7354408,5.6174519 -6e-7,8.035443 z"
         style="fill:#000000;fill-opacity:1;fill-rule:evenodd;stroke:#000000;stroke-width:0.625;stroke-linejoin:round;stroke-opacity:1"
         id="path884"
         inkscape:connector-curvature="0" />
    </marker>
    <marker
       style="overflow:visible"
       id="DotM"
       refX="0"
       refY="0"
       orient="auto"
       inkscape:stockid="DotM"
       inkscape:isstock="true">
      <path
         transform="matrix(0.4,0,0,0.4,2.96,0.4)"
         style="fill:#7076f0;fill-opacity:1;fill-rule:evenodd;stroke:#7076f0;stroke-width:1.00000003pt;stroke-opacity:1"
         d="m -2.5,-1 c 0,2.76 -2.24,5 -5,5 -2.76,0 -5,-2.24 -5,-5 0,-2.76 2.24,-5 5,-5 2.76,0 5,2.24 5,5 z"
         id="path930"
         inkscape:connector-curvature="0" />
    </marker>
    <marker
       style="overflow:visible"
       id="DotL"
       refX="0"
       refY="0"
       orient="auto"
       inkscape:stockid="DotL"
       inkscape:isstock="true">
      <path
         transform="matrix(0.8,0,0,0.8,5.92,0.8)"
         style="fill:#000000;fill-opacity:1;fill-rule:evenodd;stroke:#000000;stroke-width:1.00000003pt;stroke-opacity:1"
         d="m -2.5,-1 c 0,2.76 -2.24,5 -5,5 -2.76,0 -5,-2.24 -5,-5 0,-2.76 2.24,-5 5,-5 2.76,0 5,2.24 5,5 z"
         id="path927"
         inkscape:connector-curvature="0" />
    </marker>
  </defs>
  <sodipodi:namedview
     id="base"
     pagecolor="#ffffff"
     bordercolor="#666666"
     borderopacity="1.0"
     inkscape:pageopacity="0.0"
     inkscape:pageshadow="2"
     inkscape:zoom="1.979899"
     inkscape:cx="112.59562"
     inkscape:cy="162.5396"
     inkscape:document-units="mm"
     inkscape:current-layer="layer1"
     inkscape:document-rotation="0"
     showgrid="true"
     inkscape:window-width="1920"
     inkscape:window-height="975"
     inkscape:window-x="1920"
     inkscape:window-y="0"
     inkscape:window-maximized="1"
     inkscape:lockguides="true" />
  <metadata
     id="metadata4154">
    <rdf:RDF>
      <cc:Work
         rdf:about="">
        <dc:format>image/svg+xml</dc:format>
        <dc:type
           rdf:resource="http://purl.org/dc/dcmitype/StillImage" />
        <dc:title />
      </cc:Work>
    </rdf:RDF>
  </metadata>
  <g
     inkscape:label="Layer 1"
     inkscape:groupmode="layer"
     id="layer1"
     transform="translate(-31.755366,-108.14567)">
    <text
       xml:space="preserve"
       style="font-size:4.23332977px;line-height:1.25;font-family:sans-serif;stroke-width:0.26458299"
       x="41.133175"
       y="140.12869"
       id="text1366"><tspan
         sodipodi:role="line"
         id="tspan1364"
         x="41.133175"
         y="143.87419"
         style="stroke-width:0.26458299" /></text>
    <text
       xml:space="preserve"
       style="font-size:4.23332977px;line-height:1.25;font-family:sans-serif;stroke-width:0.26458299"
       x="43.405506"
       y="136.2477"
       id="text1370"><tspan
         sodipodi:role="line"
         id="tspan1368"
         x="43.405506"
         y="139.99319"
         style="stroke-width:0.26458299" /></text>
    <text
       xml:space="preserve"
       x="35.782269"
       y="141.9077"
       id="text1374"
       style="font-size:4.23332977px"><tspan
         sodipodi:role="line"
         id="tspan1372"
         x="35.782269"
         y="145.6532"
         style="font-size:4.23332977px;baseline-shift:baseline;stroke-width:0.26458299" /></text>
    <flowRoot
       xml:space="preserve"
       id="flowRoot1123"
       style="font-size:16px;line-height:1.25;font-family:sans-serif;letter-spacing:0px;word-spacing:0px"
       transform="matrix(0.26458333,0,0,0.26458333,47.976476,90.04474)"><flowRegion
         id="flowRegion1125"><rect
           id="rect1127"
           width="115"
           height="155.71428"
           x="40.714287"
           y="297.56372" /></flowRegion><flowPara
         id="flowPara1129" /></flowRoot>    <ellipse
       style="opacity:1;fill:#5c5c5c;fill-opacity:1;stroke:#5c5c5c;stroke-width:1.66671479;stroke-linecap:round;stroke-linejoin:round;stroke-miterlimit:4;stroke-dasharray:none;stroke-opacity:1"
       id="path4648"
       cx="74.458664"
       cy="150.88972"
       rx="11.166828"
       ry="10.62698" />
    <path
       sodipodi:type="star"
       style="opacity:1;fill:#5c5c5c;fill-opacity:1;stroke:#5c5c5c;stroke-width:0.76499999;stroke-linecap:round;stroke-linejoin:round;stroke-miterlimit:4;stroke-dasharray:none;stroke-opacity:1"
       id="path4690"
       sodipodi:sides="8"
       sodipodi:cx="68.538338"
       sodipodi:cy="138.79353"
       sodipodi:r1="4.9187074"
       sodipodi:r2="6.6469021"
       sodipodi:arg1="1.0441691"
       sodipodi:arg2="1.4368681"
       inkscape:flatsided="false"
       inkscape:rounded="0.51"
       inkscape:randomized="0"
       d="m 71.01058,143.04579 c -1.244244,0.7234 -0.158329,2.14294 -1.584693,2.33512 -1.426365,0.19218 -0.754877,-1.46414 -2.14621,-1.83244 -1.391333,-0.36829 -1.627244,1.40334 -2.771728,0.53064 -1.144484,-0.8727 0.501529,-1.56909 -0.221869,-2.81333 -0.723398,-1.24425 -2.142941,-0.15833 -2.335121,-1.5847 -0.192181,-1.42636 1.464145,-0.75487 1.832439,-2.14621 0.368294,-1.39133 -1.403332,-1.62724 -0.530633,-2.77173 0.8727,-1.14448 1.569085,0.50153 2.81333,-0.22186 1.244244,-0.7234 0.15833,-2.14295 1.584694,-2.33513 1.426364,-0.19218 0.754876,1.46415 2.14621,1.83244 1.391333,0.3683 1.627243,-1.40333 2.771727,-0.53063 1.144485,0.8727 -0.501528,1.56909 0.22187,2.81333 0.723398,1.24424 2.14294,0.15833 2.335121,1.58469 0.192181,1.42637 -1.464145,0.75488 -1.832439,2.14621 -0.368294,1.39134 1.403332,1.62725 0.530632,2.77173 -0.8727,1.14449 -1.569085,-0.50153 -2.81333,0.22187 z"
       transform="matrix(2.2333656,0,0,2.1253961,-78.612511,-144.03053)" />
    <ellipse
       style="opacity:1;fill:#5c5c5c;fill-opacity:1;stroke:#5c5c5c;stroke-width:1.66671479;stroke-linecap:round;stroke-linejoin:round;stroke-miterlimit:4;stroke-dasharray:none;stroke-opacity:1"
       id="path4648-5"
       cx="86.023788"
       cy="126.88948"
       rx="11.166828"
       ry="10.62698" />
    <path
       sodipodi:type="star"
       style="opacity:1;fill:#5c5c5c;fill-opacity:1;stroke:#5c5c5c;stroke-width:0.76499999;stroke-linecap:round;stroke-linejoin:round;stroke-miterlimit:4;stroke-dasharray:none;stroke-opacity:1"
       id="path4690-3"
       sodipodi:sides="8"
       sodipodi:cx="73.716682"
       sodipodi:cy="127.5014"
       sodipodi:r1="4.9187074"
       sodipodi:r2="6.6469021"
       sodipodi:arg1="1.0441691"
       sodipodi:arg2="1.4368681"
       inkscape:flatsided="false"
       inkscape:rounded="0.51"
       inkscape:randomized="0"
       d="m 76.188925,131.75366 c -1.244244,0.7234 -0.158329,2.14294 -1.584694,2.33512 -1.426364,0.19218 -0.754876,-1.46414 -2.146209,-1.83244 -1.391333,-0.36829 -1.627244,1.40334 -2.771728,0.53064 -1.144485,-0.8727 0.501529,-1.56909 -0.22187,-2.81333 -0.723397,-1.24425 -2.14294,-0.15833 -2.335121,-1.5847 -0.19218,-1.42636 1.464145,-0.75487 1.832439,-2.14621 0.368294,-1.39133 -1.403331,-1.62724 -0.530632,-2.77172 0.8727,-1.14449 1.569085,0.50152 2.81333,-0.22187 1.244244,-0.7234 0.158329,-2.14294 1.584693,-2.33513 1.426365,-0.19218 0.754877,1.46415 2.14621,1.83244 1.391333,0.3683 1.627244,-1.40333 2.771728,-0.53063 1.144484,0.8727 -0.501529,1.56909 0.221869,2.81333 0.723398,1.24425 2.142941,0.15833 2.335122,1.58469 0.19218,1.42637 -1.464145,0.75488 -1.832439,2.14621 -0.368294,1.39134 1.403331,1.62725 0.530632,2.77173 -0.8727,1.14449 -1.569085,-0.50153 -2.81333,0.22187 z"
       transform="matrix(2.2333656,0,0,2.1253961,-78.612511,-144.03053)" />
    <ellipse
       style="opacity:1;fill:#ffffff;fill-opacity:1;stroke:#5c5c5c;stroke-width:1.66671479;stroke-linecap:round;stroke-linejoin:round;stroke-miterlimit:4;stroke-dasharray:none;stroke-opacity:1"
       id="path4646-5"
       cx="86.156464"
       cy="126.98631"
       rx="5.5834141"
       ry="5.3134899" />
    <ellipse
       style="opacity:1;fill:#5c5c5c;fill-opacity:1;stroke:#5c5c5c;stroke-width:1.66671479;stroke-linecap:round;stroke-linejoin:round;stroke-miterlimit:4;stroke-dasharray:none;stroke-opacity:1"
       id="path4648-6"
       cx="111.09402"
       cy="138.25055"
       rx="11.166828"
       ry="10.62698" />
    <path
       sodipodi:type="star"
       style="opacity:1;fill:#5c5c5c;fill-opacity:1;stroke:#5c5c5c;stroke-width:0.76499999;stroke-linecap:round;stroke-linejoin:round;stroke-miterlimit:4;stroke-dasharray:none;stroke-opacity:1"
       id="path4690-2"
       sodipodi:sides="8"
       sodipodi:cx="84.942001"
       sodipodi:cy="132.8468"
       sodipodi:r1="4.9187074"
       sodipodi:r2="6.6469021"
       sodipodi:arg1="1.0441691"
       sodipodi:arg2="1.4368681"
       inkscape:flatsided="false"
       inkscape:rounded="0.51"
       inkscape:randomized="0"
       d="m 87.414244,137.09906 c -1.244244,0.7234 -0.15833,2.14294 -1.584694,2.33512 -1.426364,0.19218 -0.754876,-1.46414 -2.146209,-1.83244 -1.391334,-0.36829 -1.627244,1.40333 -2.771728,0.53063 -1.144485,-0.8727 0.501528,-1.56908 -0.22187,-2.81333 -0.723398,-1.24424 -2.14294,-0.15833 -2.335121,-1.58469 -0.192181,-1.42636 1.464145,-0.75488 1.832439,-2.14621 0.368294,-1.39133 -1.403332,-1.62724 -0.530632,-2.77173 0.8727,-1.14448 1.569085,0.50153 2.81333,-0.22187 1.244244,-0.72339 0.158329,-2.14294 1.584693,-2.33512 1.426365,-0.19218 0.754877,1.46415 2.14621,1.83244 1.391333,0.3683 1.627244,-1.40333 2.771728,-0.53063 1.144484,0.8727 -0.501529,1.56908 0.221869,2.81333 0.723398,1.24424 2.142941,0.15833 2.335122,1.58469 0.19218,1.42637 -1.464145,0.75488 -1.83244,2.14621 -0.368294,1.39134 1.403332,1.62725 0.530633,2.77173 -0.8727,1.14448 -1.569085,-0.50153 -2.81333,0.22187 z"
       transform="matrix(2.2333656,0,0,2.1253961,-78.612511,-144.03053)" />
    <ellipse
       style="opacity:1;fill:#ffffff;fill-opacity:1;stroke:#5c5c5c;stroke-width:1.66671479;stroke-linecap:round;stroke-linejoin:round;stroke-miterlimit:4;stroke-dasharray:none;stroke-opacity:1"
       id="path4646-9"
       cx="111.22668"
       cy="138.34743"
       rx="5.5834141"
       ry="5.3134899" />
  </g>
  <g
     inkscape:groupmode="layer"
     id="layer2"
     inkscape:label="Layer 2"
     transform="translate(16.22111,-88.125552)">
    <flowRoot
       xml:space="preserve"
       id="flowRoot976"
       style="font-size:16px;line-height:1.25;font-family:sans-serif;letter-spacing:0px;word-spacing:0px"
       transform="matrix(0.26458333,0,0,0.26458333,0,70.024616)"><flowRegion
         id="flowRegion978"><rect
           id="rect980"
           width="122.14285"
           height="106.42857"
           x="65.714287"
           y="120.42085" /></flowRegion><flowPara
         style="line-height:3;stroke:#000000;stroke-opacity:0.98039216"
         id="flowPara994" /></flowRoot>    <flowRoot
       xml:space="preserve"
       id="flowRoot1034"
       style="font-size:5.33333349px;line-height:1.25;font-family:sans-serif;letter-spacing:0px;word-spacing:0px"
       transform="translate(0,70.024616)"><flowRegion
         id="flowRegion1036"
         style="font-size:5.33333349px"><rect
           id="rect1038"
           width="152.85715"
           height="100"
           x="49.285713"
           y="118.99228"
           style="font-size:5.33333349px" /></flowRegion><flowPara
         id="flowPara1040" /></flowRoot>    <flowRoot
       xml:space="preserve"
       id="flowRoot1046"
       style="font-size:16px;line-height:1.25;font-family:sans-serif;letter-spacing:0px;word-spacing:0px"
       transform="translate(0,70.024616)"><flowRegion
         id="flowRegion1048"><rect
           id="rect1050"
           width="135.71428"
           height="107.85714"
           x="52.857143"
           y="111.84942" /></flowRegion><flowPara
         id="flowPara1052" /></flowRoot>    <rect
       style="opacity:0;fill:#fbedec;stroke:#dcdedf;stroke-width:1.56099999;stroke-linejoin:round;stroke-miterlimit:4;stroke-dasharray:none;stroke-opacity:0"
       id="rect936"
       width="118.40041"
       height="73.365479"
       x="-5.9951596"
       y="79.72789" />
    <rect
       style="opacity:0;fill:#fbedec;stroke:#dcdedf;stroke-width:1.56099999;stroke-linejoin:round;stroke-miterlimit:4;stroke-dasharray:none;stroke-opacity:0"
       id="rect938"
       width="118.4004"
       height="66.416466"
       x="-20.940945"
       y="88.793739" />
    <rect
       style="opacity:0;fill:#fbedec;stroke:#dcdedf;stroke-width:1.56099999;stroke-linejoin:round;stroke-miterlimit:4;stroke-dasharray:none;stroke-opacity:0"
       id="rect940"
       width="112.90007"
       height="66.304153"
       x="-15.44061"
       y="88.906052" />
    <ellipse
       style="opacity:1;fill:#ffffff;fill-opacity:1;stroke:#5c5c5c;stroke-width:1.66671479;stroke-linecap:round;stroke-linejoin:round;stroke-miterlimit:4;stroke-dasharray:none;stroke-opacity:1"
       id="path4646"
       cx="26.614847"
       cy="130.96646"
       rx="5.5834141"
       ry="5.3134899" />
  </g>
</svg>
